<?xml version="1.0" encoding="UTF-8" standalone="no"?>
<!-- Created with Inkscape (http://www.inkscape.org/) -->

<svg
   width="74.666656"
   height="74.666695"
   id="svg3005"
   version="1.1"
   inkscape:version="0.91 r"
   sodipodi:docname="tree-32.svg"
   viewBox="0 0 69.999989 70.000024"
   xmlns:inkscape="http://www.inkscape.org/namespaces/inkscape"
   xmlns:sodipodi="http://sodipodi.sourceforge.net/DTD/sodipodi-0.dtd"
   xmlns="http://www.w3.org/2000/svg"
   xmlns:svg="http://www.w3.org/2000/svg"
   xmlns:rdf="http://www.w3.org/1999/02/22-rdf-syntax-ns#"
   xmlns:cc="http://creativecommons.org/ns#"
   xmlns:dc="http://purl.org/dc/elements/1.1/">
  <title
     id="title6518">Tree top view</title>
  <defs
     id="defs3007">
    <linearGradient
       id="linearGradient5650"
       inkscape:swatch="solid">
      <stop
         id="stop5652"
         offset="0"
         style="stop-color:#7ece7e;stop-opacity:1;" />
    </linearGradient>
    <linearGradient
       id="linearGradient4194"
       inkscape:swatch="gradient">
      <stop
         id="stop4196"
         offset="0"
         style="stop-color:#008000;stop-opacity:1;" />
      <stop
         id="stop4198"
         offset="1"
         style="stop-color:#008000;stop-opacity:0;" />
    </linearGradient>
  </defs>
  <sodipodi:namedview
     id="base"
     pagecolor="#ffffff"
     bordercolor="#666666"
     borderopacity="1.0"
     inkscape:pageopacity="0.0"
     inkscape:pageshadow="2"
     inkscape:zoom="2.0366667"
     inkscape:cx="150"
     inkscape:cy="150"
     inkscape:document-units="px"
     inkscape:current-layer="layer1"
     showgrid="false"
     inkscape:window-width="1215"
     inkscape:window-height="776"
     inkscape:window-x="65"
     inkscape:window-y="24"
     inkscape:window-maximized="1"
     showguides="true"
     inkscape:guide-bbox="true"
     inkscape:snap-global="false"
     inkscape:showpageshadow="0"
     inkscape:pagecheckerboard="0"
     inkscape:deskcolor="#d1d1d1">
    <inkscape:page
       x="0"
       y="0"
       width="69.999992"
       height="70.000023"
       id="page2"
       margin="0"
       bleed="0" />
  </sodipodi:namedview>
  <metadata
     id="metadata3010">
    <rdf:RDF>
      <cc:Work
         rdf:about="">
        <dc:format>image/svg+xml</dc:format>
        <dc:type
           rdf:resource="http://purl.org/dc/dcmitype/StillImage" />
        <dc:title>Tree top view</dc:title>
        <dc:date>Fevereiro de 2016</dc:date>
        <dc:creator>
          <cc:Agent>
            <dc:title>jpenrici</dc:title>
          </cc:Agent>
        </dc:creator>
        <dc:publisher>
          <cc:Agent>
            <dc:title>Open Clip Art Library</dc:title>
          </cc:Agent>
        </dc:publisher>
        <cc:license
           rdf:resource="http://creativecommons.org/publicdomain/zero/1.0/" />
        <dc:subject>
          <rdf:Bag>
            <rdf:li>plant</rdf:li>
            <rdf:li>flora</rdf:li>
            <rdf:li>tree</rdf:li>
            <rdf:li>palm</rdf:li>
            <rdf:li>leaf</rdf:li>
            <rdf:li>nature</rdf:li>
            <rdf:li>clip art</rdf:li>
            <rdf:li>clipart</rdf:li>
            <rdf:li>svg</rdf:li>
          </rdf:Bag>
        </dc:subject>
      </cc:Work>
      <cc:License
         rdf:about="http://creativecommons.org/publicdomain/zero/1.0/">
        <cc:permits
           rdf:resource="http://creativecommons.org/ns#Reproduction" />
        <cc:permits
           rdf:resource="http://creativecommons.org/ns#Distribution" />
        <cc:permits
           rdf:resource="http://creativecommons.org/ns#DerivativeWorks" />
      </cc:License>
    </rdf:RDF>
  </metadata>
  <g
     inkscape:label="Camada 1"
     inkscape:groupmode="layer"
     id="layer1"
     transform="translate(-3.1922812,-754.72596)">
    <g
       id="g6098"
       transform="matrix(0.80739706,0,0,0.75950142,149.86357,115.26657)">
      <circle
         r="35"
         cy="887.37903"
         cx="-138.31024"
         id="path6096"
         style="color:#000000;clip-rule:nonzero;display:inline;overflow:visible;visibility:visible;opacity:1;isolation:auto;mix-blend-mode:normal;color-interpolation:sRGB;color-interpolation-filters:linearRGB;solid-color:#000000;solid-opacity:1;fill:#008000;fill-opacity:1;fill-rule:nonzero;stroke:none;stroke-width:1;stroke-linecap:round;stroke-linejoin:round;stroke-miterlimit:4;stroke-dasharray:none;stroke-dashoffset:0;stroke-opacity:1;color-rendering:auto;image-rendering:auto;shape-rendering:auto;text-rendering:auto;enable-background:accumulate" />
      <path
         inkscape:transform-center-y="-64.38521"
         inkscape:transform-center-x="8.9818398"
         inkscape:connector-curvature="0"
         id="path3125-7-3-8"
         d="m -133.931,842.05072 c 0.78212,1.96555 2.80469,3.95272 3.49687,6.30003 3.11001,7.43899 2.29279,16.00811 -0.14771,23.51996 -0.95873,3.05562 0.38789,-3.12211 -0.11643,-4.21955 -0.1936,-3.63911 -1.6241,-7.04062 -3.81581,-9.76478 1.30737,-2.04039 2.65888,-4.05335 3.94028,-6.09998 -2.2465,0.88557 -4.1118,2.3842 -5.7451,4.16951 -0.34646,-0.31782 -0.69237,-0.63054 -1.0619,-0.91727 -3.49025,-3.09092 -7.50727,-5.55395 -10.49054,-9.26463 1.69926,2.89195 3.84633,5.50345 5.95908,8.13464 -1.23183,2.3494 -2.09739,5.02154 -2.69169,7.64261 -1.01738,4.7613 -0.98931,9.79279 0.18661,14.51806 -1.42762,-0.71479 -2.10885,-4.1455 -3.31013,-5.85805 -3.44901,-7.20144 -6.9015,-14.58477 -8.18397,-22.64022 -2.28586,4.44064 -2.04096,9.97967 -0.16305,14.53062 -1.79333,4.24993 0.69494,8.8356 3.42292,11.8788 0.0822,0.90777 -2.54124,-2.1232 -3.454,-2.58093 -7.18322,-5.951 -15.32905,-11.80225 -24.72295,-12.07893 -2.82608,0.55602 3.39545,1.94454 4.23199,2.83521 10.19741,4.95389 19.69877,11.35619 29.08325,17.8578 -7.05047,-3.38489 -14.14133,-6.87535 -21.72007,-8.67656 -2.51304,0.93637 2.3626,2.1535 3.14296,2.96861 1.21132,0.44137 3.98357,1.82531 0.96846,1.60105 -0.44265,0.0676 -0.87881,0.15736 -1.31081,0.26303 -0.65619,-0.70714 -1.31291,-1.41914 -1.97988,-2.10974 0.14335,0.86729 0.3815,1.69399 0.65735,2.4975 -6.31996,2.14509 -11.24157,8.25698 -12.9955,15.03091 1.66736,-1.17138 3.13561,-3.65126 5.16939,-4.79488 3.35726,-2.45304 7.21072,-3.75648 11.1868,-4.26954 0.80351,1.02821 1.67315,1.98987 2.56723,2.92695 -0.67512,0.42736 -1.32565,0.89802 -1.93318,1.43017 -2.00211,-0.57642 -3.97367,-1.35872 -5.98621,-1.68864 1.22966,1.32356 2.70907,2.44668 4.27088,3.43147 -1.09783,1.28788 -2.03159,2.74105 -2.74232,4.31955 -1.15968,2.20432 -2.14598,4.52472 -3.22446,6.78368 -1.75543,0.21782 -3.52171,0.3452 -5.30172,0.32928 1.18661,1.03115 2.53194,1.7757 3.95199,2.30987 -0.62798,1.13656 -1.30056,2.2428 -2.08491,3.27726 0.96357,-0.94141 1.85965,-1.9702 2.73441,-3.02288 2.8061,0.89702 5.88241,0.90727 8.71294,0.16687 3.58717,2.6406 8.23852,0.82086 11.51354,-1.52195 0.84811,0.0732 -2.39846,2.30719 -2.97944,3.18969 -6.72987,6.53159 -13.54175,14.09835 -15.44999,23.96191 0.0129,3.0799 2.38774,-3.23929 3.35298,-3.96519 6.34485,-9.88783 13.89479,-18.79011 21.51779,-27.54761 -3.87232,6.09218 -7.81732,12.2054 -10.7472,18.89183 -0.31272,0.18596 -0.63118,0.36621 -0.94135,0.5541 0.2344,0.0254 0.46368,0.0129 0.69626,0.0254 -0.27132,0.63501 -0.54645,1.26789 -0.79739,1.91378 0.33182,2.24069 1.64263,-0.39744 2.61386,-1.92212 0.78072,-0.0637 1.54952,-0.19171 2.3105,-0.37577 0.25221,7.70893 5.27369,14.7401 11.64575,18.0204 -0.78204,-1.9656 -2.80473,-3.95268 -3.4968,-6.30005 -1.05471,-2.52274 -1.62973,-5.17882 -1.87097,-7.8761 1.56238,-1.14428 3.00733,-2.54624 4.31757,-4.05691 1.15,2.04077 2.68672,3.83774 4.50046,5.24516 0.86114,0.76269 1.75497,1.48731 2.65659,2.20155 -0.31846,3.05548 -0.83711,6.07772 -1.67647,9.03934 2.18827,-1.61387 3.78469,-3.92915 4.82322,-6.52103 1.67677,1.37413 3.29598,2.8192 4.68323,4.54471 -1.22236,-2.08021 -2.68131,-4.01168 -4.18919,-5.91227 0.50826,-1.62794 0.81933,-3.32853 0.89461,-5.02424 3.37796,-2.94051 3.0674,-8.23645 1.89817,-12.26653 0.30509,-0.85131 1.38577,3.11802 2.01097,3.96511 3.93944,8.76751 8.78266,17.90762 17.06799,22.66104 2.75938,0.85868 -2.22581,-3.36777 -2.60215,-4.56554 -7.05144,-9.32162 -12.87949,-19.60426 -18.55778,-29.92011 4.89221,6.40913 9.77821,12.9285 15.80386,18.17475 2.63833,0.36813 -1.21393,-3.05791 -1.57149,-4.16117 -0.89908,-0.97556 -2.80107,-3.53967 -0.19873,-1.89286 7.24538,2.60517 15.53521,-0.60698 20.525953,-6.52944 -1.980075,0.24775 -4.327913,1.76238 -6.624143,1.80957 -7.53637,1.09198 -14.97003,-2.17331 -21.00049,-6.80871 -2.46267,-1.85053 2.67945,1.28386 3.80409,1.07573 3.64011,0.91352 7.44327,0.21272 10.71231,-1.63027 0.85098,0.92045 1.70499,1.84257 2.57107,2.73926 -0.21401,-1.29522 -0.60316,-2.51239 -1.10077,-3.66908 0.33692,-0.23947 0.67537,-0.47705 0.99575,-0.74213 3.75341,-2.71347 7.092311,-6.14282 11.256793,-8.15965 -4.739973,1.4343 -9.180413,4.16026 -13.820083,6.01232 -1.66355,-2.57501 -3.82915,-4.83591 -5.95521,-6.91711 3.44381,-0.0637 6.63357,1.79894 9.95381,2.3433 -2.14165,-2.30515 -5.00263,-4.05843 -7.82998,-5.39535 -4.19332,-1.91186 -8.8186,-2.7645 -13.36501,-2.35573 0.90784,-1.38056 4.17868,-1.49393 5.96288,-2.45999 7.22062,-2.37119 14.61025,-4.71838 22.23356,-4.6531 -3.67546,-3.19388 -8.80458,-3.91087 -13.31445,-2.73105 -3.58712,-2.64061 -8.23856,-0.82084 -11.51353,1.52189 -0.84803,-0.0732 2.39846,-2.30714 2.97951,-3.18962 6.72987,-6.53161 13.53786,-14.09837 15.44598,-23.96192 -0.0129,-3.0799 -2.38376,3.23928 -3.34899,3.96518 -6.34492,9.88778 -13.89861,18.79012 -21.52172,27.54762 4.34999,-6.84354 8.80484,-13.70956 11.79363,-21.38932 -0.41716,-2.81665 -2.3931,2.11377 -3.27911,2.79354 -0.61843,1.20056 -2.37821,3.87996 -1.64144,0.73798 0.28088,-8.18622 -4.9383,-15.79964 -11.64962,-19.25455 z m 5.22383,5.52866 c 4.67063,4.89177 4.54955,12.83913 2.22102,18.93356 -0.21591,0.64251 -0.44839,1.27891 -0.6923,1.90957 -1.23078,3.03759 -2.58616,6.05168 -4.35263,8.77681 2.50992,-7.74516 5.98684,-15.86251 4.31363,-24.2454 0.0192,-1.90657 -1.59213,-3.60209 -1.48972,-5.37454 z m 22.91816,3.1855 c 0.16305,0.0129 0.30381,0.14271 0.16686,0.36238 -4.043,7.75325 -9.34773,14.70711 -15.19312,20.96822 -0.64365,0.8265 -4.43845,3.23286 -2.15484,0.83391 5.90272,-7.03515 11.227,-14.59139 16.88902,-21.84383 -0.0573,-0.23566 0.12871,-0.33565 0.2917,-0.32101 z m -50.01767,1.95135 c 1.96001,3.34554 2.91316,7.21989 4.12691,10.90725 -1.40758,0.88142 -4.51005,-2.45036 -4.7726,-4.52802 -0.18597,-2.00408 -0.86001,-4.80316 0.64569,-6.37923 z m 15.83106,1.45929 c 1.06179,0.73758 2.04777,1.60345 2.9562,2.56009 -0.20126,0.23947 -0.38979,0.49041 -0.5834,0.73792 -1.21038,-1.65697 -2.3826,-3.07199 -2.37273,-3.29801 z m -1.16688,0.70466 c 0.94682,1.19363 1.87792,2.39687 2.73831,3.64404 -1.09763,1.52438 -2.09088,3.14409 -3.02618,4.73235 -0.50953,-2.7752 0.0381,-5.59217 0.28787,-8.37639 z m 5.86177,1.68442 c -0.0447,0.0949 -0.0975,0.18916 -0.14401,0.28343 -0.0192,-0.0192 -0.0383,-0.0319 -0.0573,-0.0573 0.0674,-0.0745 0.1305,-0.15543 0.19871,-0.22929 z m -0.93357,1.07573 c 0.0789,0.0937 0.15977,0.18408 0.23691,0.27897 -0.18725,0.36622 -0.37577,0.73136 -0.56812,1.09655 -0.12294,-0.18788 -0.25285,-0.36748 -0.3815,-0.55473 0.2312,-0.27897 0.47386,-0.54837 0.71173,-0.82136 z m -6.39849,0.45476 c 0.0573,2.50666 0.11388,5.01505 0.17069,7.52171 -0.48532,1.13797 -1.74193,5.66045 -1.36527,1.96385 0.21973,-3.18555 0.80084,-6.32308 1.19421,-9.48556 z m 7.41766,0.85051 c 3.27236,4.57108 4.82035,10.56151 3.3412,16.21505 -0.91473,3.71425 -2.27076,7.31212 -3.88972,10.7239 0.47897,1.16382 3.21397,-1.04905 4.58989,-0.006 l 0.56046,0.0752 0.48276,0.0637 c -1.94765,-0.43119 -4.85194,1.87328 -6.16516,0.78384 0.0447,-0.0872 0.0816,-0.1796 0.12484,-0.26686 -0.0885,0.0573 -0.18723,0.0923 -0.2764,0.14579 -0.0319,-0.0319 -0.0758,-0.0447 -0.10501,-0.0872 3.24515,-7.66281 5.04301,-16.95843 1.41194,-24.84581 -0.1395,-0.48978 -0.4248,-1.05963 -0.75454,-1.64698 0.22993,-0.38149 0.44457,-0.77276 0.68073,-1.15075 z m -2.56724,0.5796 c 0.17961,0.27704 0.34966,0.56047 0.52099,0.84225 -1.88779,3.55787 -3.76144,7.15282 -4.28643,11.25756 -0.43883,-3.61222 -0.16115,-7.52333 2.38055,-10.22776 0.435,-0.64654 0.9104,-1.25854 1.3847,-1.87205 z m -39.63993,0.59231 c 7.83184,2.90091 15.15116,7.2762 21.93013,12.34165 0.87236,0.53308 3.75259,4.11351 1.14745,2.12643 -7.49987,-4.98965 -15.37764,-9.27449 -23.03479,-13.97186 -0.41269,0.20126 -0.49357,-0.7069 -0.0445,-0.49616 z m 57.85932,1.03822 c -1.23917,1.82741 -3.15752,6.32518 -3.88582,6.5002 0.58213,-2.54827 2.01311,-4.8303 3.88582,-6.5002 z m -17.07582,0.21655 c 1.05814,1.89798 1.91701,3.92119 2.43106,6.15825 1.45209,6.5865 -0.36939,13.25929 -3.01067,19.2588 -3.86994,-5.67494 -5.1272,-13.52831 -2.13539,-19.93839 0.75376,-1.91652 1.70516,-3.71711 2.715,-5.47866 z m -17.98209,4.01937 c 2.91314,5.63477 6.83643,10.54876 10.51384,15.61044 -4.43979,-3.83194 -9.75094,-7.7393 -11.15952,-14.0302 -0.0381,-0.5885 0.13307,-1.26618 0.64568,-1.58024 z m 12.21369,2.48082 c 0.0866,3.77596 0.17006,7.5525 0.25667,11.3284 -1.74875,-3.47547 -1.4494,-7.71352 -0.25667,-11.3284 z m -23.35768,5.17016 c 1.89638,0.98573 6.36632,2.21846 6.65526,2.95612 -2.44264,-0.16622 -4.79207,-1.27419 -6.65526,-2.95612 z m 49.93206,0.25412 c 0.54773,0.0637 1.13599,0.36685 1.33417,0.96313 -5.68754,2.08172 -10.89304,5.35401 -16.1889,8.34308 4.30077,-4.01009 8.82961,-8.92764 14.85473,-9.30621 z m 7.44492,0.12044 c 1.87314,0.15671 4.55883,-0.0675 5.7412,1.80118 -3.41739,1.47908 -7.13952,1.80352 -10.73945,2.435 -0.56175,-1.64047 3.04403,-4.32496 4.99825,-4.23618 z m -55.46716,5.52032 c 1.44095,0.0192 2.87233,0.1777 4.23594,0.49232 0.62798,0.11449 1.2526,0.24521 1.8748,0.39169 3.00617,0.76379 6.01212,1.6638 8.82573,3.04786 -4.23047,-0.71924 -8.61945,-1.70836 -12.96434,-1.89708 -0.66533,-0.66966 -1.32376,-1.34413 -1.97213,-2.03473 z m -2.81226,0.15028 c 0.35604,0.66894 0.74237,1.31935 1.16701,1.94713 -2.18147,0.18343 -4.33989,0.62673 -6.44141,1.54681 -1.75378,0.31781 -3.02588,2.31866 -4.67157,2.52259 2.29362,-3.61852 6.01238,-5.47364 9.94597,-6.01653 z m 25.58654,0.65059 c -0.12936,2.27974 3.00498,5.21226 1.66863,6.75037 -5.31663,-1.44998 -11.24138,-1.99956 -16.58183,-0.4248 -0.051,-0.0382 -0.0994,-0.0699 -0.14771,-0.1083 -0.59422,-0.41335 -1.17038,-0.85281 -1.7348,-1.30508 2.25184,-0.92078 4.67564,-1.34005 7.14539,-1.08401 3.57195,0.31144 7.11123,1.11063 10.52937,2.21809 0.98454,-0.70959 -1.52571,-3.20988 -0.81288,-4.84489 l -0.0318,-0.60442 -0.0382,-0.59614 z m -23.7934,0.12922 c 0.41144,0.33818 0.81161,0.70684 1.21746,1.05904 -0.15221,10e-4 -0.30317,0.0192 -0.45541,0.0254 -0.2522,-0.3624 -0.51969,-0.71441 -0.76242,-1.08401 z m 5.30946,2.38909 c 1.87995,0.0381 3.75359,0.23693 5.58565,0.5503 2.9748,0.47385 -2.93193,0.13757 -3.8508,0.86306 -0.29743,0.0758 -0.58086,0.18789 -0.87134,0.28342 -0.63118,-0.53628 -1.2328,-1.10859 -1.83588,-1.68029 0.32419,-10e-4 0.64829,-0.0254 0.97237,-0.0192 z m -2.51272,0.0447 c 0.7704,0.68753 1.55372,1.35711 2.33768,2.02638 -0.43373,0.18278 -0.8616,0.37894 -1.27578,0.60441 -0.0319,-0.0446 -0.07,-0.0847 -0.10125,-0.1337 -0.69766,-0.77288 -1.36009,-1.57883 -1.99153,-2.41412 0.34393,-0.0254 0.68569,-0.0675 1.03077,-0.0835 z m 35.3729,2.16815 c 2.70199,-0.13372 5.44725,0.81346 7.77947,2.23482 -3.48278,-0.5732 -6.965,-1.14412 -10.44772,-1.71779 0.87484,-0.30825 1.7676,-0.47257 2.66825,-0.51717 z m 7.0015,0.52546 c 0.0841,-0.0637 0.45921,0.005 1.29139,0.26683 2.88659,0.79303 5.66794,1.95506 8.50282,2.92698 -2.31203,-0.38087 -4.62318,-0.76155 -6.93527,-1.14248 -0.71965,-0.53437 -3.11184,-1.86275 -2.85894,-2.05142 z m -39.15765,0.0917 c 0.56812,0.46494 1.14788,0.90886 1.73867,1.33419 -0.57703,0.20763 -1.14031,0.45093 -1.69983,0.71295 -0.52673,-0.36239 -1.03166,-0.76854 -1.47799,-1.26336 0.46938,-0.2847 0.9491,-0.54584 1.43915,-0.78378 z m 9.33919,0.52546 c 3.87004,-0.11024 7.7979,0.7279 11.51743,1.88873 -5.47989,2.64117 -12.15269,2.61021 -17.25474,-0.90479 1.87422,-0.60635 3.79418,-0.92849 5.73731,-0.98394 z m -11.47462,0.71301 c 0.39679,0.4006 0.78633,0.82127 1.18249,1.20908 -0.84238,0.0129 -1.66798,-0.0866 -2.48553,-0.25411 0.42163,-0.33821 0.85784,-0.65608 1.30304,-0.95473 z m 32.59957,0.35028 c 3.51725,0.0447 6.99673,1.13656 9.87211,3.43565 2.56232,1.78385 4.81741,3.96922 6.99365,6.25003 -2.21622,0.6764 -4.49156,1.10097 -6.88863,0.98403 -6.64893,-0.39169 -12.34591,-4.55528 -17.12243,-9.27704 2.27947,-0.9202 4.71616,-1.42336 7.1453,-1.39267 z m 5.87341,0.27897 c 3.39446,0.17324 6.93762,1.15338 8.97364,4.31128 1.28736,1.42604 2.44252,2.98225 3.52011,4.59471 -0.0382,0.0129 -0.0726,0.0255 -0.1089,0.0382 -3.92169,-3.2823 -7.54372,-7.2627 -12.38484,-8.94356 z m -33.76642,0.0254 c 1.29865,0.86256 2.6618,1.61099 4.14644,2.1265 -1.98658,-0.10186 -4.01615,-0.49741 -5.7724,-1.42596 0.19679,-0.10247 0.38594,-0.2121 0.58722,-0.30827 0.34074,-0.15866 0.69306,-0.25667 1.03854,-0.3917 z m -6.98201,1.13408 c 0.68841,0.1134 1.37696,0.22417 2.06541,0.33754 -0.22101,0.14643 -0.43246,0.314 -0.64958,0.47134 -0.5503,-0.20255 -1.10166,-0.39744 -1.65314,-0.59679 0.0771,-0.0732 0.15864,-0.1408 0.23692,-0.21273 z m 26.67169,0.40889 c 0.83344,5.82213 -0.60634,12.08408 -4.30593,16.43613 -0.2949,-5.54657 1.378,-11.056 3.62909,-16.07747 0.22608,-0.1191 0.44645,-0.24905 0.67684,-0.35859 z m -23.05421,0.18789 c 0.6108,0.10052 1.22125,0.19935 1.832,0.29997 0.95949,0.71271 4.89201,2.83711 1.5636,1.78876 -1.46596,-0.40252 -2.905,-0.90098 -4.33701,-1.42185 0.30699,-0.23054 0.62099,-0.45345 0.94141,-0.66688 z m 20.31583,0.21718 c 0.38212,-0.0129 0.69593,0.11449 0.96465,0.33757 -0.0447,0.0872 -0.0816,0.17959 -0.12485,0.26685 0.0885,-0.0572 0.18663,-0.0923 0.27643,-0.14577 0.0319,0.0318 0.0758,0.0446 0.10502,0.0872 -2.10522,4.97112 -3.58883,10.62842 -3.38787,16.14416 -0.48851,0.51588 -1.00243,1.00765 -1.55978,1.45514 -0.0637,0.0573 -0.12549,0.1038 -0.18663,0.15864 -0.21526,-2.09827 -0.0885,-4.23591 0.45923,-6.3293 0.91472,-3.71411 2.27069,-7.312 3.88963,-10.72384 -0.4783,-1.16374 -3.21777,1.04904 -4.59369,0.006 l -0.56048,-0.0752 -0.48213,-0.0637 c 1.54917,0.34266 3.71585,-1.07216 5.20054,-1.12165 z m -25.09638,0.33757 c 0.39615,0.22801 0.79205,0.44136 1.19419,0.65058 -2.20057,1.76335 -4.98729,5.86324 -5.33674,5.91234 0.95591,-2.43686 2.38793,-4.67463 4.14255,-6.56273 z m 8.69351,0.0917 c 3.48273,0.57386 6.96501,1.14421 10.44773,1.71787 -3.49953,1.23325 -7.3381,0.17771 -10.44773,-1.71787 z m 20.93043,0.17962 c 5.93793,5.50515 13.74798,9.98152 21.83292,8.48071 0.68201,-0.006 1.56088,-0.23693 2.48554,-0.55029 0.28723,0.307 0.57768,0.60889 0.86352,0.91727 -5.19404,2.43496 -11.38366,2.48745 -16.27836,-0.80472 -3.06434,-1.99162 -5.90061,-4.40389 -8.49517,-7.03386 -1.17668,0.16177 0.0319,3.60381 -1.29138,4.72399 l -0.22547,0.55474 -0.21718,0.55411 c 1.06707,-1.97682 -0.51082,-6.10761 1.32629,-6.84207 z m -27.20841,1.00484 c 0.0254,0.0129 0.0573,0.0254 0.0816,0.0381 4.19334,1.91188 8.81867,2.76456 13.3651,2.35574 -0.90785,1.38056 -4.17493,1.49393 -5.95909,2.45998 -4.95353,1.62679 -9.9896,3.22439 -15.1232,4.0569 2.40127,-3.1558 4.75222,-6.3702 7.63556,-8.91432 z m 18.03652,2.91862 c -4.30076,4.01014 -8.82573,8.9277 -14.85085,9.30627 -0.54773,-0.0637 -1.13987,-0.36685 -1.33801,-0.96319 5.68756,-2.08166 10.893,-5.35402 16.18886,-8.34308 z m 39.14989,1.71365 c -0.91082,0.83729 -1.9069,1.56966 -2.95619,2.20988 -0.13565,-0.27133 -0.27196,-0.54073 -0.41971,-0.80474 1.72192,-0.74224 3.18572,-1.47596 3.3763,-1.40514 z m -28.06811,1.52609 c 2.37088,5.5565 5.48573,11.59787 4.1192,17.89947 -0.21019,0.54583 -0.64725,1.06995 -1.23689,1.10492 -0.25285,-6.43658 -1.70664,-12.71379 -2.88231,-19.00439 z m 5.07996,0.63774 c 6.21965,4.77246 12.49334,10.64678 20.4676,11.29921 1.70117,0.55666 3.67481,-0.62032 5.23167,-0.0129 -5.69877,3.41731 -12.77582,1.04171 -17.5698,-3.07703 -0.514,-0.40315 -1.0179,-0.82128 -1.5131,-1.25082 -2.36954,-2.12503 -4.67737,-4.37215 -6.61637,-6.95883 z m -7.5849,0.0319 c 0.1134,3.94696 -1.92073,7.59211 -4.4965,10.25278 1.49896,-3.41827 2.99748,-6.8345 4.4965,-10.25278 z m -25.8743,1.03828 c 0.56175,1.64036 -3.04408,4.3249 -4.99825,4.23612 -1.56767,-0.1305 -3.69614,-0.0129 -5.04491,-1.06318 0.36176,-0.45348 0.72627,-0.90185 1.08127,-1.36349 2.91155,-0.93523 5.97532,-1.28559 8.96189,-1.80945 z m 18.16493,0.45411 c -1.167,3.60108 -2.52616,7.2857 -3.49687,11.03658 -0.68868,0.4872 -1.40215,0.93521 -2.11209,1.38843 0.17513,-0.58912 0.34964,-1.1775 0.56365,-1.7387 0.21592,-0.6425 0.44839,-1.27889 0.69238,-1.90962 1.2307,-3.03754 2.58614,-6.05156 4.35261,-8.77669 z m 8.44835,2.40572 c 0.97842,1.32402 0.15415,4.71349 0.51336,6.82127 0.0382,3.99186 0.0573,8.02474 -0.19871,12.02476 -1.87142,-2.42048 -3.59705,-4.92914 -4.82329,-7.75108 2.16968,-3.33118 3.74264,-7.1132 4.50821,-11.09495 z m -16.52342,0.85473 c 0.36686,-0.11534 0.36621,0.10891 -0.48978,1.00905 -5.90278,7.03508 -11.22318,14.59139 -16.88519,21.84383 0.11218,0.47068 -0.73589,0.39743 -0.46303,-0.0381 4.04307,-7.75324 9.34786,-14.70711 15.19325,-20.96828 0.40188,-0.51651 2.03409,-1.65054 2.64494,-1.84287 z m 7.44882,1.23 c 0.17067,-0.0693 -0.42037,3.15402 -0.29618,4.55724 -0.42035,0.35604 -0.84918,0.70029 -1.28363,1.03402 0.34458,-1.61341 0.75493,-3.20999 1.25637,-4.75317 0.17963,-0.57258 0.27833,-0.81981 0.32291,-0.83809 z m 4.63258,0.50442 c -0.39679,1.22293 -0.89735,2.42992 -1.52088,3.53985 -0.0713,-0.43371 -0.15285,-0.86675 -0.1987,-1.30087 0.61524,-0.70022 1.20216,-1.42923 1.71925,-2.23898 z m 11.9919,2.46833 c 0.10126,-0.0192 0.314,0.26494 0.68858,1.02153 4.62412,8.05966 9.88246,15.67119 14.7692,23.54493 0.45347,0.0192 0.14464,0.86779 -0.17133,0.46304 -5.79318,-6.35096 -10.51041,-13.77436 -14.45808,-21.55608 -0.41781,-0.67168 -1.13152,-3.41909 -0.82855,-3.47316 z m -14.32571,0.45858 c 0.0447,0.542 0.10708,1.08017 0.1866,1.61773 -0.43436,0.635 -0.92573,1.21235 -1.47424,1.72614 -0.14834,-0.57703 -0.28086,-1.15858 -0.37768,-1.74703 0.57769,-0.50506 1.13204,-1.04045 1.66482,-1.59684 z m 3.28683,0.52544 c 0.0319,0.10442 -0.12938,0.47385 -0.59871,1.25502 -0.36431,0.65466 -0.74702,1.29592 -1.13962,1.93047 -0.14465,-0.43438 -0.27451,-0.87938 -0.39233,-1.33005 0.82861,-0.81518 2.05057,-2.1169 2.13159,-1.85544 z m 16.57786,1.05904 c 2.11523,1.32 3.75406,3.43514 4.71826,5.8331 -1.28444,-1.79117 -4.76773,-5.03486 -4.71826,-5.8331 z m -29.64341,0.0381 c -0.58214,2.54825 -2.01308,4.83022 -3.88579,6.5002 1.23918,-1.82748 3.15753,-6.32517 3.88579,-6.5002 z m 7.33989,0.61652 c 0.0573,0.61589 0.14464,1.223 0.26876,1.82199 -0.57576,0.4102 -1.19255,0.76716 -1.8904,1.0132 -0.11777,0.0675 -0.24331,0.11522 -0.36178,0.1796 0.0764,-0.55919 0.15351,-1.11675 0.25286,-1.672 0.58469,-0.43818 1.16721,-0.87849 1.73093,-1.34253 z m 2.92511,0.99651 c 0.1134,0.5108 0.24266,1.0184 0.39232,1.52182 -0.36239,0.56366 -0.72306,1.13001 -1.09299,1.68864 -0.11898,-0.27326 -0.23438,-0.54711 -0.34201,-0.82557 0.34838,-0.79454 0.69402,-1.5904 1.04249,-2.38489 z m -6.01354,1.35081 c -0.10308,0.45347 -0.18853,0.90841 -0.27642,1.3635 -0.67557,0.32672 -1.35782,0.63306 -2.04994,0.91725 0.0446,-0.22545 0.0949,-0.44774 0.14399,-0.67098 0.73047,-0.53117 1.4468,-1.0786 2.18211,-1.60952 z m 3.56297,0.36686 c 0.0823,0.30953 0.17706,0.61398 0.27643,0.91727 -0.76557,1.97944 -1.97129,3.74149 -3.05742,5.54954 -0.0573,-1.61327 -0.0129,-3.23413 0.15543,-4.84907 0.89963,-0.51271 1.7643,-1.06771 2.62557,-1.61774 z m -8.99305,1.55519 c 0.0866,-0.0254 0.14593,0.0192 0.17897,0.13371 -0.24457,0.14273 -0.48594,0.28788 -0.73128,0.42991 0.20954,-0.26623 0.41461,-0.51907 0.55219,-0.56302 z m 12.50546,0.12937 c 0.12105,0.29934 0.23311,0.60058 0.3694,0.89644 0.74258,2.60136 4.86889,7.14512 4.85042,7.56758 -2.56036,-1.77863 -4.7115,-4.26848 -6.23906,-7.1257 0.11522,-0.14143 0.24139,-0.27833 0.35413,-0.421 0.22928,-0.2987 0.44582,-0.60952 0.66517,-0.91725 z m -2.77722,0.51332 c 0.0699,0.16752 0.15414,0.32739 0.22928,0.49234 -0.45029,0.68054 -0.90485,1.35713 -1.34196,2.0472 0.37131,-0.8463 0.74135,-1.69296 1.11249,-2.53921 z m -4.83099,0.20382 c -0.45093,2.95129 -0.53372,5.94272 0.0699,8.96853 -0.0192,1.90652 1.59212,3.60209 1.48965,5.37447 -3.34382,-3.50216 -4.19899,-8.56734 -3.57851,-13.40063 0.6832,-0.28215 1.35424,-0.60252 2.01879,-0.94237 z m 14.1351,1.74289 c 1.62671,-0.11339 3.0053,4.35358 2.37279,6.3376 -0.16369,0.45858 -0.32037,0.97441 -0.49361,1.50093 -0.82855,-1.03452 -1.65754,-2.06867 -2.47393,-3.11039 0.19108,-1.58042 0.41145,-3.15906 0.59488,-4.72814 z m -0.86351,7.64263 c 0.72338,0.57001 1.44845,1.13706 2.16662,1.71367 -0.48087,1.07884 -1.12542,2.01955 -2.16662,2.37659 -0.12423,-1.36507 -0.0866,-2.72919 0,-4.09026 z"
         style="fill:#55d400;fill-opacity:1;stroke:#008000;stroke-width:0.2;stroke-linecap:round;stroke-linejoin:round;stroke-miterlimit:4;stroke-dasharray:none;stroke-opacity:1" />
    </g>
  </g>
</svg>
