<?xml version="1.0" encoding="UTF-8" standalone="no"?>
<!-- Created with Inkscape (http://www.inkscape.org/) -->

<svg
   width="63.69516"
   height="66.258194"
   id="svg3005"
   version="1.1"
   inkscape:version="0.91 r"
   sodipodi:docname="tree-32.svg"
   viewBox="0 0 59.714211 62.117055"
   xmlns:inkscape="http://www.inkscape.org/namespaces/inkscape"
   xmlns:sodipodi="http://sodipodi.sourceforge.net/DTD/sodipodi-0.dtd"
   xmlns="http://www.w3.org/2000/svg"
   xmlns:svg="http://www.w3.org/2000/svg"
   xmlns:rdf="http://www.w3.org/1999/02/22-rdf-syntax-ns#"
   xmlns:cc="http://creativecommons.org/ns#"
   xmlns:dc="http://purl.org/dc/elements/1.1/">
  <title
     id="title6518">Tree top view</title>
  <defs
     id="defs3007">
    <linearGradient
       id="linearGradient5650"
       inkscape:swatch="solid">
      <stop
         id="stop5652"
         offset="0"
         style="stop-color:#7ece7e;stop-opacity:1;" />
    </linearGradient>
    <linearGradient
       id="linearGradient4194"
       inkscape:swatch="gradient">
      <stop
         id="stop4196"
         offset="0"
         style="stop-color:#008000;stop-opacity:1;" />
      <stop
         id="stop4198"
         offset="1"
         style="stop-color:#008000;stop-opacity:0;" />
    </linearGradient>
    <filter
       id="filter3824"
       inkscape:collect="always"
       x="-0.012161454"
       y="-0.01363152"
       width="1.0243229"
       height="1.027263">
      <feGaussianBlur
         id="feGaussianBlur3826"
         stdDeviation="0.72131344"
         inkscape:collect="always" />
    </filter>
  </defs>
  <sodipodi:namedview
     id="base"
     pagecolor="#ffffff"
     bordercolor="#666666"
     borderopacity="1.0"
     inkscape:pageopacity="0.0"
     inkscape:pageshadow="2"
     inkscape:zoom="2.0366667"
     inkscape:cx="150"
     inkscape:cy="150"
     inkscape:document-units="px"
     inkscape:current-layer="layer1"
     showgrid="false"
     inkscape:window-width="1215"
     inkscape:window-height="776"
     inkscape:window-x="65"
     inkscape:window-y="24"
     inkscape:window-maximized="1"
     showguides="true"
     inkscape:guide-bbox="true"
     inkscape:snap-global="false"
     inkscape:showpageshadow="0"
     inkscape:pagecheckerboard="0"
     inkscape:deskcolor="#d1d1d1">
    <inkscape:page
       x="0"
       y="0"
       width="59.714211"
       height="62.117054"
       id="page2"
       margin="0"
       bleed="0" />
  </sodipodi:namedview>
  <metadata
     id="metadata3010">
    <rdf:RDF>
      <cc:Work
         rdf:about="">
        <dc:format>image/svg+xml</dc:format>
        <dc:type
           rdf:resource="http://purl.org/dc/dcmitype/StillImage" />
        <dc:title>Tree top view</dc:title>
        <dc:date>Fevereiro de 2016</dc:date>
        <dc:creator>
          <cc:Agent>
            <dc:title>jpenrici</dc:title>
          </cc:Agent>
        </dc:creator>
        <dc:publisher>
          <cc:Agent>
            <dc:title>Open Clip Art Library</dc:title>
          </cc:Agent>
        </dc:publisher>
        <cc:license
           rdf:resource="http://creativecommons.org/publicdomain/zero/1.0/" />
        <dc:subject>
          <rdf:Bag>
            <rdf:li>plant</rdf:li>
            <rdf:li>flora</rdf:li>
            <rdf:li>tree</rdf:li>
            <rdf:li>palm</rdf:li>
            <rdf:li>leaf</rdf:li>
            <rdf:li>nature</rdf:li>
            <rdf:li>clip art</rdf:li>
            <rdf:li>clipart</rdf:li>
            <rdf:li>svg</rdf:li>
          </rdf:Bag>
        </dc:subject>
      </cc:Work>
      <cc:License
         rdf:about="http://creativecommons.org/publicdomain/zero/1.0/">
        <cc:permits
           rdf:resource="http://creativecommons.org/ns#Reproduction" />
        <cc:permits
           rdf:resource="http://creativecommons.org/ns#Distribution" />
        <cc:permits
           rdf:resource="http://creativecommons.org/ns#DerivativeWorks" />
      </cc:License>
    </rdf:RDF>
  </metadata>
  <g
     inkscape:label="Camada 1"
     inkscape:groupmode="layer"
     id="layer1"
     transform="translate(-162.17754,-757.58788)">
    <g
       id="g3841"
       transform="matrix(0.19826511,0,0,0.20126225,125.61204,698.68051)">
      <path
         sodipodi:nodetypes="sssssssssssssssss"
         inkscape:connector-curvature="0"
         id="path3049"
         d="m 332.19685,232.14468 c 0,10.03337 -2.27921,19.59181 -6.40091,28.28569 -4.1217,8.69389 -16.12127,13.76716 -23.49123,20.34232 -7.36997,6.57517 -10.11034,14.65223 -19.85513,18.32944 -9.7448,3.6772 -20.45865,5.71061 -31.70484,5.71061 -11.24619,0 -21.96004,-2.03341 -31.70484,-5.71062 -9.74479,-3.6772 -10.97632,-13.1323 -18.34628,-19.70746 -7.36997,-6.57517 -20.87838,-10.2704 -25.00008,-18.96429 -4.1217,-8.69389 -6.40091,-18.25232 -6.40091,-28.28569 0,-10.03336 2.27921,-19.5918 6.40091,-28.28569 4.1217,-8.69389 19.89337,-14.45617 27.26334,-21.03134 7.36996,-6.57516 6.33823,-13.96321 16.08302,-17.64041 9.7448,-3.67721 20.45865,-5.71062 31.70484,-5.71062 11.24619,0 21.96004,2.03341 31.70483,5.71062 9.7448,3.6772 13.23959,13.1323 20.60956,19.70746 7.36997,6.57516 18.61511,10.2704 22.73681,18.96429 4.1217,8.69389 6.40091,18.25233 6.40091,28.28569 z"
         style="color:#000000;display:inline;overflow:visible;visibility:visible;opacity:0.550633;fill:#006400;fill-opacity:1;fill-rule:nonzero;stroke:#000000;stroke-width:0.5;stroke-linecap:round;stroke-linejoin:round;stroke-miterlimit:4;stroke-dashoffset:0;stroke-opacity:1;marker:none;filter:url(#filter3824);enable-background:accumulate"
         transform="matrix(1.8049373,0,0,1.9953953,-117.5594,-10.848096)" />
      <path
         sodipodi:nodetypes="aaaaaaaaaaaaaaaaaaaaaaaaaaaaaaaaaaaaaaaaaaaaa"
         inkscape:connector-curvature="0"
         id="path3047"
         d="m 300.97702,549.30001 c -1.23437,-8.43303 -8.09853,-15.6818 -14.97852,-20.62291 -5.03076,-3.61305 -11.70803,-4.00611 -17.70188,-5.49944 -14.34739,-3.57457 -31.64267,0.55459 -43.57388,-8.24917 -5.41077,-3.99247 -5.19131,-12.71762 -9.53177,-17.87319 -4.82152,-5.72696 -13.66526,-7.43308 -17.7019,-13.7486 -4.29826,-6.72488 -3.67911,-15.57053 -5.44673,-23.37265 -1.86629,-8.23761 -6.98351,-16.44077 -5.44673,-24.74749 1.803,-9.7457 12.19427,-15.76031 16.3402,-24.7475 4.79115,-10.38582 0.99948,-25.44347 9.5318,-32.99665 4.48899,-3.97387 12.25284,-5.21251 17.70188,-2.74972 9.88217,4.46642 8.18579,22.28298 17.70188,27.49721 7.18083,3.93465 18.97826,6.07041 24.5103,0 3.70082,-4.06096 0.28277,-11.23553 -1.36168,-16.49833 -1.89722,-6.07171 -13.92609,-11.93218 -9.53178,-16.49833 3.96333,-4.11833 9.4177,7.04489 14.97851,8.24917 5.78646,1.25314 15.88108,4.31063 17.70188,-1.37486 2.37815,-7.42578 -13.58387,-8.51892 -17.70188,-15.12347 -5.74794,-9.21867 -13.75782,-22.30325 -8.1701,-31.62181 3.13632,-5.23038 12.98017,-0.29619 17.70188,-4.12458 8.2317,-6.67428 4.69002,-23.18113 13.61684,-28.87208 6.90829,-4.4041 16.36283,-0.61354 24.5103,0 9.15403,0.68935 18.89558,0.24836 27.23368,4.12458 8.18376,3.80449 16.5469,9.66244 20.42525,17.87319 5.8649,12.41646 -8.78767,32.06861 1.36168,41.24584 4.4086,3.98633 12.88991,2.10352 17.70189,-1.37486 5.62138,-4.06346 6.78002,-12.41019 8.1701,-19.24807 0.54757,-2.69356 -2.68821,-7.8087 0,-8.24916 9.91765,-1.62497 6.8498,19.09557 9.53178,28.87209 1.11704,4.07188 -0.48322,9.65896 2.72337,12.37375 8.00703,6.77899 23.49419,-5.61804 31.31871,1.37486 4.13476,3.69529 2.17315,10.95078 2.72337,16.49832 1.31238,13.23203 0.86058,26.58238 1.36168,39.87096 0.41482,11.00046 -2.533,22.71453 1.36169,32.99666 3.57071,9.42684 17.73769,13.36909 19.06358,23.37265 1.32042,9.9622 -4.61876,21.04942 -12.25517,27.49721 -2.87126,2.42434 -7.23468,1.95299 -10.89346,2.74972 -4.96064,1.08021 -11.33455,-0.81632 -14.97852,2.74972 -4.66654,4.56677 0.10504,14.23234 -4.08505,19.24805 -6.3038,7.54597 -19.47334,4.99399 -27.23367,10.99889 -3.60263,2.7877 -5.19617,7.53674 -8.1701,10.99888 -8.8321,10.28206 -16.36661,23.14553 -28.59535,28.87208 -9.91656,4.64379 -21.97897,5.00082 -32.68041,2.74972 -13.1216,-2.76019 -30.57215,-6.62486 -35.40377,-19.24805 -2.9497,-7.70642 9.36643,-15.19951 8.1701,-23.37263 z"
         style="fill:#008000;stroke:#000000;stroke-width:1.71343px;stroke-linecap:butt;stroke-linejoin:miter;stroke-opacity:1" />
      <path
         style="fill:#28d000;fill-opacity:1;stroke:#00c800;stroke-width:0.737648px;stroke-linecap:butt;stroke-linejoin:miter;stroke-opacity:1"
         d="m 337.5381,295.58327 c -0.73502,-0.42269 -1.49134,-0.72802 -2.27358,-0.85734 -1.04297,-0.17284 -2.12932,1.24395 -3.16418,1.01759 -1.20325,-0.26324 -1.86479,-2.46982 -3.07926,-2.65774 -1.50935,-0.2331 -3.08698,1.10298 -4.55272,2.01152 -1.19329,0.73964 -2.42195,1.50401 -3.41016,2.78479 -0.71284,0.92378 -0.85016,2.72709 -1.68129,3.37283 -2.12074,1.64769 -5.88841,-3.13986 -6.8859,0.0732 -0.88082,2.8374 2.60422,4.30629 4.2304,5.88288 1.73621,1.68346 3.60065,3.68763 5.7653,3.69955 0.9901,0.005 1.98581,-0.84078 2.86738,-1.64917 0.84863,-0.77817 1.26488,-3.0272 2.2156,-2.98989 1.42204,0.0558 1.22504,4.25479 2.59576,4.67361 0.75182,0.22985 1.43041,-1.1973 2.21238,-1.42782 0.87435,-0.25769 2.11302,-0.86596 2.62139,0.11794 0.38986,0.75467 -0.0592,2.04434 -0.3924,2.95665 -0.28664,0.78478 -0.79276,1.44054 -1.29745,1.9347 -0.86596,0.84835 -1.9061,1.02774 -2.84092,1.66616 -0.54466,0.37202 -1.59956,1.25959 -1.59956,1.25959 0,0 -2.13717,3.71408 -3.21622,5.55621 -0.44166,0.754 -0.90709,1.51265 -1.35515,2.25862 -1.91696,-1.22264 -3.95907,-2.06734 -6.02253,-2.42081 -2.2942,-0.39292 -4.61488,2.49915 -6.89384,1.99313 -2.64994,-0.58838 -4.2068,-5.18686 -6.87765,-5.6165 -3.31921,-0.53371 -6.64105,2.18734 -9.80826,4.05332 -2.57858,1.51919 -5.28338,3.06592 -7.38561,5.72822 -1.51691,1.91983 -1.75236,5.73938 -3.54181,7.0718 -4.56614,3.3999 -13.06067,-6.77844 -15.0879,-0.0565 -1.79031,5.93613 5.93001,9.11824 9.57149,12.47861 3.88809,3.58796 8.0712,7.85431 12.81551,7.94284 2.17003,0.0405 4.31824,-1.72156 6.21025,-3.39429 1.82124,-1.6102 2.65743,-6.32734 4.74258,-6.22108 3.11914,0.15892 2.87617,9.04199 5.90055,9.96255 1.65899,0.50499 3.0921,-2.55801 4.79448,-3.01944 1.90325,-0.51589 4.58232,-1.72469 5.74496,0.35773 0.89178,1.59713 -0.0832,4.33749 -0.76847,6.24459 -0.58945,1.64057 -1.6191,2.9785 -2.7004,4.00226 -1.85588,1.75713 -4.19314,2.0802 -6.21026,3.39429 -1.17521,0.76562 -3.43155,2.61068 -3.43155,2.61068 0,0 -1.68689,2.92784 -3.53781,6.11181 -0.017,-0.0103 -0.0361,-0.0243 -0.0529,-0.0341 -0.62384,-0.31447 -1.27987,0.75588 -1.94927,0.59402 -1.20677,-0.29177 -1.81344,-1.90481 -2.85728,-2.6356 -0.534,-0.37337 -1.08539,-0.91398 -1.71341,-0.85884 -0.53856,0.0473 -0.86452,0.71017 -1.34097,0.98435 -1.27137,0.73165 -2.59953,1.37425 -4.00351,1.72226 -0.84835,0.21039 -1.82727,-0.20869 -2.60506,0.21335 -1.59115,0.86323 -1.80484,3.89446 -3.53495,4.34904 -1.65863,0.43582 -3.08303,-2.23478 -4.78009,-2.02461 -1.39531,0.17271 -2.5649,1.47098 -3.50554,2.60328 -0.80867,0.97386 -0.86419,2.55597 -1.74462,3.4525 -0.95796,0.9756 -2.59622,0.8345 -3.55417,1.81008 -1.76083,1.7931 -3.0578,4.30631 -3.4892,6.90501 -0.21573,1.29933 0.76389,2.64511 0.50724,3.93507 -0.29837,1.49986 -2.01584,2.33292 -2.2567,3.84579 -0.29938,1.88009 0.59361,3.79734 1.17547,5.60703 0.47365,1.47338 0.95449,3.03127 1.86061,4.24197 0.65358,0.87321 2.03512,0.99884 2.4654,2.02318 0.23866,0.56818 0.24151,1.24852 0.11869,1.96124 -3.60102,2.17997 -6.64721,6.21666 -10.14024,8.69303 -3.13951,2.22569 -6.21596,4.52453 -9.35541,6.7502 -3.88092,2.75134 -11.7158,8.16329 -11.7158,8.16329 0,0 -1.94105,2.79355 -2.78988,4.26567 -1.45696,2.52659 -2.02874,5.50893 -3.88964,7.81113 -1.08416,1.34134 -2.46186,2.59021 -4.08065,3.27696 -1.88185,0.79832 -4.57853,1.92661 -6.00247,0.7202 -1.85663,-1.57282 -0.44345,-4.92949 0.24381,-7.34324 0.6147,-2.15894 3.66035,-3.88687 3.35294,-6.02995 -0.56029,-3.90696 -8.99282,-3.94897 -8.82027,-7.94588 0.11544,-2.67196 4.67944,-3.57719 6.39722,-5.8411 1.78452,-2.35185 3.68186,-5.00668 3.86853,-7.78456 0.40798,-6.07322 -3.21271,-11.58081 -6.21614,-16.70223 -2.81287,-4.79658 -5.02886,-14.82491 -10.85082,-12.77814 -6.59261,2.31771 2.17402,13.61089 -1.52773,19.31294 -1.45071,2.23462 -5.10065,2.37806 -7.08111,4.23921 -2.74581,2.58036 -4.49787,5.93457 -6.20777,9.17108 -2.10023,3.97535 -5.04473,8.15974 -4.88222,12.42798 0.13061,3.43456 4.37885,5.59348 4.66265,9.0078 0.24408,2.93635 -2.76037,5.83169 -2.62527,8.78287 0.27017,5.90239 2.78886,11.75848 6.77013,16.05511 2.16606,2.33763 6.5123,2.2687 8.67839,4.60633 1.99066,2.1483 1.61796,5.72523 3.3983,8.03602 2.07002,2.6869 4.57372,5.74229 8.1364,6.34402 4.33311,0.73181 8.9623,-5.08463 13.12204,-3.85195 4.3389,1.28578 3.85809,8.17501 7.70315,10.35726 1.87969,1.0668 4.58094,0.29642 6.71281,0.89859 3.5278,0.99648 6.79272,2.59876 9.85137,4.43657 1.1463,0.68873 1.76622,2.23225 3.14763,2.42087 1.61099,0.22002 3.25781,-0.91742 4.76456,-1.67505 2.94623,-1.48143 4.96902,-5.0193 8.1945,-5.48991 1.78919,-0.26111 3.18573,2.27548 4.90642,1.66454 3.30985,-1.17509 3.88135,-5.65543 5.64843,-8.56751 1.19772,-1.97389 1.08223,-5.32541 3.35295,-6.02991 3.62189,-1.12365 5.60732,5.8887 9.29734,5.0837 5.03239,-1.09782 5.17448,-9.28913 9.68153,-11.83485 -1.22252,3.5265 -2.5607,7.00162 -2.34742,11.04666 0.1888,3.5817 2.49136,7.17564 3.07965,10.79936 0.49986,3.07888 -1.18664,6.32092 0.36101,9.09495 0.50412,0.90361 1.09589,1.64628 1.76817,2.29769 -0.28426,0.81229 -0.75275,2.20401 -0.75275,2.20401 0,0 -0.0119,1.47553 0.0505,2.19811 0.10845,1.2402 0.61953,2.38706 0.5439,3.63767 -0.044,0.72864 -0.19753,1.50867 -0.56789,2.12211 -0.4306,0.71312 -1.04972,1.7689 -1.79457,1.6558 -0.97114,-0.14737 -1.29208,-1.70227 -1.62609,-2.72783 -0.29875,-0.91731 0.30724,-2.2498 -0.28929,-2.95294 -1.08757,-1.28196 -3.86221,0.65001 -4.73092,-0.83003 -0.58079,-0.98937 0.69212,-2.37792 0.72975,-3.58235 0.0392,-1.25124 0.0592,-2.62051 -0.52283,-3.66423 -1.27233,-2.2818 -3.73639,-3.46313 -5.90394,-4.63073 -2.03004,-1.09357 -5.07316,-4.22146 -6.50309,-2.16772 -1.6192,2.32565 3.83753,4.45296 3.94698,7.34538 0.043,1.13353 -1.08438,1.97678 -1.30118,3.09538 -0.30056,1.55091 -0.12022,3.1838 0.0697,4.7371 0.23353,1.90793 0.25058,4.05914 1.29165,5.56128 0.83775,1.20875 2.70292,1.05411 3.58601,2.22096 0.75946,1.00349 0.46153,2.69717 1.18878,3.73062 1.45449,2.067 3.65994,3.61403 5.95629,4.26328 1.24937,0.35323 2.61339,-0.64185 3.86275,-0.28862 1.14817,0.32462 1.87198,1.68731 2.98869,2.11836 1.29883,0.50085 2.84492,1.04493 4.14913,0.45666 1.58624,-0.7155 1.74677,-3.82456 3.39225,-4.32029 1.71633,-0.51708 3.15476,2.03482 4.91739,1.95228 0.86155,-0.0399 1.55062,-0.93068 2.38707,-1.19539 1.38421,-0.43808 2.83309,-0.60745 4.25864,-0.63611 0.53422,-0.0103 1.11141,0.43306 1.60678,0.18887 0.57769,-0.28479 0.81638,-1.06518 1.13398,-1.67867 0.62045,-1.20001 0.4812,-2.95822 1.42695,-3.85688 0.52456,-0.49852 1.58624,0.0925 2.00751,-0.51656 0.0102,-0.0172 0.0102,-0.009 0.0211,-0.0267 2.95044,1.83031 5.64346,3.50106 5.64346,3.50106 0,0 2.74697,0.41391 4.10154,0.46627 2.325,0.09 4.52011,-0.84086 6.88564,-0.27391 1.37818,0.33033 2.85777,0.94494 4.05615,2.08145 1.39316,1.32111 3.36411,3.2397 3.23585,5.1244 -0.16711,2.45733 -3.005,2.79809 -4.89973,3.35297 -1.69471,0.49633 -4.26012,-1.4185 -5.51733,-0.0913 -2.29198,2.41947 1.6176,10.10791 -1.07265,11.90477 -1.79845,1.2012 -4.52061,-2.50098 -6.79483,-2.95649 -2.36259,-0.47319 -4.95853,-0.8973 -6.85914,0.29086 -4.15529,2.59771 -6.09785,8.56856 -8.05122,13.80344 -1.82946,4.90283 -7.34132,11.83126 -3.3077,16.12543 4.56757,4.86259 7.87324,-8.64066 13.31193,-8.06148 2.13137,0.22695 3.9081,3.46638 6.04099,4.35771 2.95707,1.23579 5.98467,1.20008 8.89045,1.17301 3.56907,-0.0343 7.6383,0.61439 10.35056,-1.61982 2.18233,-1.79798 1.66332,-6.72817 3.76164,-8.65526 1.80461,-1.65732 5.06622,-0.32359 6.93101,-1.8891 1.67716,-1.40807 3.12642,-3.23388 4.31574,-5.33188 0.70401,0.42116 1.40336,0.83887 2.10498,1.27061 1.71422,1.05461 5.14635,3.22219 5.14635,3.22219 0,0 1.27323,0.22244 1.90811,0.2619 1.08967,0.0678 2.11862,-0.33998 3.23417,-0.0503 0.64999,0.16872 1.37402,0.4704 1.95143,1.0116 0.6712,0.62912 1.59499,1.53231 1.56223,2.40615 -0.0428,1.13932 -1.39676,1.27091 -2.2757,1.50747 -0.78616,0.21154 -1.97803,-0.71294 -2.54737,-0.11071 -1.03813,1.09795 0.88673,4.70814 -0.34667,5.51264 -0.82456,0.53777 -2.12802,-1.21445 -3.1992,-1.45136 -1.11283,-0.2461 -2.33518,-0.46341 -3.20775,0.0673 -1.90761,1.16008 -2.74626,3.91274 -3.58508,6.3221 -0.78562,2.25656 -3.2508,5.42799 -1.30059,7.46724 2.20845,2.30919 3.58168,-3.93201 6.13601,-3.60239 1.00102,0.12913 1.85048,1.63935 2.86178,2.07704 1.40216,0.60686 2.81601,0.6545 4.17586,0.67433 1.67028,0.0245 3.60257,0.34329 4.83996,-0.66369 0.99544,-0.81096 0.65205,-3.11073 1.60646,-3.9823 0.82087,-0.74956 2.36722,-0.0765 3.21735,-0.78296 1.70062,-1.41253 2.86333,-3.78288 3.23088,-6.42909 0.20002,-1.43969 -0.8035,-3.27894 -0.60341,-4.71866 0.18376,-1.32312 1.34799,-1.93718 1.62866,-3.20609 0.32636,-1.47539 0.64893,-3.23157 0.009,-4.88688 -0.77802,-2.01326 -3.57696,-2.70919 -4.16547,-4.75841 -0.6139,-2.13746 1.56735,-3.47708 1.33476,-5.60043 -0.11357,-1.03801 -0.98837,-1.99554 -1.2988,-3.03924 -0.51376,-1.72716 -0.75086,-3.48165 -0.90539,-5.19309 -0.058,-0.64142 0.24824,-1.26135 -0.0136,-1.89338 -0.3048,-0.73706 -1.04126,-1.15963 -1.61405,-1.6373 -1.12002,-0.93406 -2.64039,-1.02501 -3.52268,-2.30062 -0.48951,-0.70746 -0.0435,-1.88295 -0.62164,-2.48437 -1.11217,-1.15681 -2.58769,-0.39868 -3.8638,-0.5142 -0.86498,-0.0783 -1.84122,0.68838 -2.57384,-0.12758 -1.16857,-1.30152 0.46391,-3.69282 -0.62518,-5.09349 -0.55976,-0.71991 -1.24252,-0.91459 -1.99363,-0.95843 0.0672,-1.55815 -0.0737,-3.11505 -0.61891,-4.6486 -1.52931,-4.29842 -7.44756,-5.68542 -8.56944,-10.07096 -1.17023,-4.57447 3.52642,-7.51902 3.17041,-12.08266 -0.17391,-2.23088 -1.93527,-4.28292 -2.52952,-6.51603 -0.9835,-3.69542 -1.44189,-7.45071 -1.65852,-11.13068 -0.0813,-1.37915 0.65399,-2.69427 0.13727,-4.04277 -0.15057,-0.39315 -0.37429,-0.75601 -0.61975,-1.07949 -0.73651,-0.97034 -1.81443,-1.67025 -2.70901,-2.42015 -0.67686,-0.56749 -1.41572,-0.99771 -2.18975,-1.36499 3.26173,0.088 6.86265,-1.27681 10.12941,-1.03987 3.24174,0.23514 5.98521,3.34439 9.25107,2.12636 6.09556,-2.2735 11.75213,-9.04042 12.56787,-15.11622 1.21288,-9.03383 -18.81001,-15.57688 -12.57687,-23.06989 3.21833,-3.86889 14.48847,2.31882 14.48847,2.31882 l 16.12197,-1.24513 c 0,0 -13.60713,-12.35447 -8.54793,-17.63704 3.07105,-3.20666 7.9895,4.92303 12.20694,3.38137 1.8486,-0.67576 1.83404,-3.43414 3.3495,-4.66855 1.7617,-1.43495 4.31567,-3.49234 6.16351,-2.78262 2.4093,0.92531 1.82553,4.77342 1.78563,7.40224 -0.0356,2.35127 -2.76375,5.10741 -1.82951,7.12783 1.70319,3.68331 10.65764,0.86136 11.61177,4.88443 0.63786,2.68943 -3.91747,5.13148 -5.08904,7.96388 -1.21705,2.9425 -2.45662,6.21197 -1.86393,9.03081 1.29578,6.16275 6.64554,10.40182 11.27586,14.45457 4.33658,3.79567 9.56097,12.9677 15.13156,8.94782 6.30799,-4.55205 -6.1696,-12.77389 -3.87903,-19.69433 0.89766,-2.71212 4.68978,-4.09239 6.25349,-6.61514 2.16802,-3.49763 3.07234,-7.42132 3.95902,-11.21565 1.08911,-4.66053 3.03134,-9.80573 1.64591,-13.98334 -1.11484,-3.36165 -6.2117,-4.07897 -7.48247,-7.36817 -1.09289,-2.82884 1.27034,-6.67977 0.28839,-9.56058 -1.96395,-5.76149 -6.33178,-10.74239 -11.76095,-13.6429 -2.95381,-1.57802 -7.49619,0.005 -10.45,-1.57218 -2.71459,-1.45024 -3.342,-5.13809 -5.88047,-6.82143 -2.95171,-1.95723 -6.48479,-4.1396 -10.42087,-3.51868 -4.78732,0.75524 -8.02606,8.08801 -12.77257,8.28724 -4.95093,0.20785 -6.40821,-6.74896 -11.09224,-7.59905 -2.28977,-0.41553 -4.90919,1.25887 -7.3333,1.39031 -4.01155,0.21755 -7.92034,-0.25769 -11.67531,-1.03498 -1.40723,-0.29128 -2.49915,-1.61711 -4.01291,-1.33177 -1.76499,0.33256 -3.16352,2.03641 -4.54038,3.30278 -2.6923,2.4763 -3.84842,6.6936 -7.12325,8.2628 -1.81656,0.87044 -4.03103,-1.18651 -5.67576,0.007 -3.16371,2.29672 -2.48215,6.92153 -3.5215,10.41359 -0.70445,2.36706 0.36989,5.653 -1.82947,7.12786 -1.39302,0.93409 -2.87253,0.51591 -4.38658,-0.208 1.06406,-1.98069 2.80099,-3.51952 3.71279,-5.67869 0.48063,-1.13766 1.13505,-2.35459 1.38505,-3.60304 0.0832,-0.41617 0.11748,-0.83959 0.088,-1.26693 -0.10026,-1.46589 -1.2719,-2.24022 -1.76978,-3.50188 -1.32857,-3.36648 -2.48555,-6.93232 -3.14297,-10.71966 -0.39729,-2.28865 0.28782,-5.0222 -0.47984,-7.08573 -1.5704,-4.22125 -6.92515,-4.34007 -7.78062,-9.00328 -0.82014,-4.47064 3.84113,-8.83847 3.41699,-13.44843 -0.15142,-1.64465 -0.69295,-3.08392 -1.39582,-4.42497 0.64559,-0.43756 1.20068,-0.97701 1.3979,-1.91034 0.38372,-1.81587 -2.06569,-3.08757 -1.5708,-4.85806 0.31031,-1.11004 1.50159,-0.92586 2.23349,-1.4544 1.07978,-0.77976 2.67302,-0.87989 3.17804,-2.49257 0.26245,-0.83843 -0.5982,-1.65469 -0.45788,-2.53974 0.2527,-1.59557 1.57354,-2.47666 2.17733,-3.8967 0.30847,-0.7263 0.77188,-1.52157 0.73673,-2.33464 -0.0302,-0.69722 -0.57594,-1.07232 -0.78967,-1.66979 -0.57034,-1.59423 -1.06853,-3.26435 -1.32797,-5.06319 -0.15773,-1.08695 0.20748,-2.38867 -0.1209,-3.36616 -0.67154,-1.9996 -3.12682,-2.0154 -3.46718,-4.23012 -0.32635,-2.1231 1.86361,-4.2445 1.71947,-6.43645 -0.11834,-1.80225 -1.14267,-3.18694 -2.04043,-4.31722 -0.77206,-0.97208 -2.04184,-0.8942 -2.75067,-1.96561 -0.77135,-1.16586 -0.65626,-3.31965 -1.42762,-4.48546 -0.88609,-1.33929 -2.00811,-2.41301 -3.23314,-3.11743 z m -57.14321,98.56695 c 0.58057,0.3454 0.99933,0.96075 1.33916,1.58122 0.58333,1.06483 0.65055,2.37876 1.06698,3.53216 0.24258,0.67196 0.84818,1.94795 0.84818,1.94795 0,0 0.99022,0.96649 1.57689,1.53325 -0.32497,0.93256 -0.56331,1.89497 -0.63547,2.96106 -0.22168,3.27288 2.62139,5.28492 3.45143,8.27071 0.49959,1.79696 0.60089,3.79782 0.75845,5.78038 -2.12266,-0.36227 -4.35534,-0.54913 -6.25891,-1.36935 -2.31934,-0.99939 -3.81925,-3.76442 -6.1099,-4.52227 0.85009,-1.44582 1.56151,-2.94998 1.67431,-4.62054 0.083,-1.23123 -0.5156,-2.44739 -1.06697,-3.53213 -0.53073,-1.04419 -2.22209,-1.57996 -2.1176,-2.76256 0.15637,-1.76899 3.40614,-1.5623 3.83756,-3.27252 0.2367,-0.93808 -0.82939,-1.76241 -0.94431,-2.73157 -0.12806,-1.08357 -0.4951,-2.6493 0.30208,-3.29529 0.61141,-0.49551 1.60339,0.0981 2.27838,0.49946 z m 70.26714,68.11025 c -1.41783,0.36335 -2.87011,0.9952 -3.97977,-0.26775 -0.44216,-0.50322 -0.66584,-1.09898 -0.77388,-1.73987 1.73953,0.39011 3.30106,1.10502 4.75365,2.00762 z"
         id="path3045"
         inkscape:connector-curvature="0" />
      <path
         sodipodi:nodetypes="sssssssssssssssssssssssssssssss"
         inkscape:connector-curvature="0"
         id="path4688-1-6-8"
         d="m 275.27777,441.04609 c 1.46041,4.71531 -10.11039,6.85152 -9.04509,11.67349 1.0355,4.68713 9.93303,2.61798 12.73469,6.49873 2.52053,3.49133 -0.0126,8.99296 2.00629,12.80197 2.71949,5.12941 7.39939,14.08713 12.71053,11.8302 3.22366,-1.36987 -3.02281,-9.51085 0.30754,-10.58957 5.69516,-1.84471 5.20867,12.44744 10.86146,14.42048 3.84343,1.34151 7.75778,-3.50196 11.8055,-3.10654 8.1137,0.79264 14.8166,14.50084 22.04296,10.69233 3.46932,-1.82843 -1.56698,-9.82948 1.87958,-11.70127 5.43421,-2.95126 11.17273,10.04196 16.87963,7.6728 5.1889,-2.15409 1.98908,-11.94871 6.04865,-15.8587 3.93089,-3.78605 11.86256,-1.08017 15.46804,-5.18314 5.36342,-6.10349 11.47828,-19.32818 4.84258,-23.98539 -3.7745,-2.64911 -8.47708,10.6645 -11.70592,7.36092 -6.23188,-6.37612 17.14111,-14.11202 14.36901,-22.6216 -0.72535,-2.22664 -5.29815,-0.50817 -6.5058,-2.51007 -2.38504,-3.95367 4.31776,-10.1243 1.53244,-13.80146 -3.94138,-5.20337 -13.36162,-0.21954 -19.23531,-3.00173 -6.46914,-3.06421 -8.97913,-13.37015 -16.06043,-14.33611 -4.94441,-0.67448 -8.45579,6.4913 -13.44277,6.64653 -8.83849,0.2751 -16.41361,-13.89246 -24.49823,-10.27563 -3.30468,1.47843 -5.53377,7.19916 -3.64576,10.31128 1.53603,2.53198 8.7323,-1.82552 8.74922,1.14365 0.0436,7.63482 -18.45867,-3.27491 -22.46256,3.20191 -1.34987,2.18356 3.89104,7.10779 2.36609,7.34312 -1.52501,0.23536 -14.68562,-3.0666 -17.73451,2.09444 -1.54949,2.62293 4.30873,5.61463 3.35511,8.51297 -0.88077,2.67689 -5.26001,2.34314 -7.14249,4.42735 -1.98726,2.20021 -5.08041,5.27435 -3.91637,8.01032 1.02428,2.40752 6.66137,-0.17206 7.43592,2.32872 z"
         style="fill:#00c000;stroke:#008c00;stroke-width:2.81627;stroke-opacity:1" />
      <path
         sodipodi:nodetypes="sssssssssssssssssssssssssssssss"
         inkscape:connector-curvature="0"
         id="path4688-1-6-8-1"
         d="m 313.50698,443.63091 c 0.45414,2.06092 -3.144,2.9946 -2.81274,5.10211 0.32201,2.04861 3.08886,1.14426 3.96008,2.8404 0.78381,1.52596 -0.003,3.93055 0.6239,5.59536 0.84567,2.24191 2.30097,6.15704 3.95255,5.17062 1.00247,-0.59872 -0.93999,-4.1569 0.0957,-4.62839 1.77102,-0.80625 1.61974,5.44041 3.37757,6.30277 1.19517,0.58632 2.41242,-1.53062 3.67113,-1.35778 2.52309,0.34644 4.60747,6.33787 6.85463,4.67329 1.07886,-0.79916 -0.48728,-4.29617 0.58449,-5.11427 1.68986,-1.28991 3.47435,4.38904 5.24901,3.35354 1.61359,-0.94148 0.61855,-5.22241 1.88094,-6.93135 1.22238,-1.65475 3.68886,-0.4721 4.81006,-2.26539 1.66783,-2.66764 3.56936,-8.44776 1.50587,-10.48328 -1.17375,-1.15785 -2.63609,4.66113 -3.64016,3.21723 -1.9379,-2.78681 5.33034,-6.16793 4.46829,-9.88721 -0.22556,-0.97319 -1.64754,-0.2221 -2.02307,-1.09708 -0.74168,-1.72801 1.34267,-4.42502 0.47653,-6.03219 -1.22564,-2.27424 -4.15503,-0.0959 -5.98155,-1.31195 -2.01169,-1.33929 -2.79222,-5.84369 -4.99428,-6.26589 -1.53754,-0.29479 -2.62948,2.83715 -4.18025,2.905 -2.74848,0.12018 -5.10411,-6.07195 -7.61814,-4.49116 -1.02766,0.64617 -1.72084,3.14654 -1.13374,4.50673 0.47766,1.10665 2.71547,-0.79787 2.72073,0.49986 0.0136,3.33696 -5.74005,-1.43135 -6.98511,1.39946 -0.41977,0.95437 1.20999,3.1066 0.73577,3.20947 -0.47423,0.10278 -4.56675,-1.34033 -5.51485,0.91541 -0.48184,1.14639 1.33987,2.45397 1.04332,3.72076 -0.27389,1.16997 -1.63569,1.02411 -2.22109,1.93504 -0.61796,0.96166 -1.57982,2.30527 -1.21785,3.50107 0.31852,1.05225 2.07146,-0.0752 2.31233,1.01782 z"
         style="fill:#000000;fill-opacity:0;stroke:#a7e75f;stroke-width:1.03826;stroke-opacity:1" />
    </g>
  </g>
</svg>
